PathFileType	4	(X/Y/Z)	/Users/itak/Documents/Research/Walk-IL/dataset/trc/00332_00011.trc
DataRate	CameraRate	NumFrames	NumMarkers	Units	OrigDataRate	OrigDataStartFrame	OrigNumFrames
100.000000	100.000000	4	54	mm	100.000000	453	605
Frame#	Time	RPSI			LPSI			L3			STRN			T10			C7			CLAV			RBAK			LBAK			LSHO			LUPA			LAEL			LAOL			LWTS			LWPS			LFRA			LIFD			LHPS			LHTS			RSHO			RUPA			RAEL			RAOL			RWTS			RWPS			RFRA			RIFD			RHTS			RHPS			RBHD			LFHD			RFHD			LBHD			LHIP			RHIP			RASI			LASI			LTHI			LANK			LTIP			LTOE			LMT1			LMT5			LHEE			RKNE			RTHI			RANK			RTIP			RTOE			RMT1			RMT5			RHEE			LKNE			*53			
		X1	Y1	Z1	X2	Y2	Z2	X3	Y3	Z3	X4	Y4	Z4	X5	Y5	Z5	X6	Y6	Z6	X7	Y7	Z7	X8	Y8	Z8	X9	Y9	Z9	X10	Y10	Z10	X11	Y11	Z11	X12	Y12	Z12	X13	Y13	Z13	X14	Y14	Z14	X15	Y15	Z15	X16	Y16	Z16	X17	Y17	Z17	X18	Y18	Z18	X19	Y19	Z19	X20	Y20	Z20	X21	Y21	Z21	X22	Y22	Z22	X23	Y23	Z23	X24	Y24	Z24	X25	Y25	Z25	X26	Y26	Z26	X27	Y27	Z27	X28	Y28	Z28	X29	Y29	Z29	X30	Y30	Z30	X31	Y31	Z31	X32	Y32	Z32	X33	Y33	Z33	X34	Y34	Z34	X35	Y35	Z35	X36	Y36	Z36	X37	Y37	Z37	X38	Y38	Z38	X39	Y39	Z39	X40	Y40	Z40	X41	Y41	Z41	X42	Y42	Z42	X43	Y43	Z43	X44	Y44	Z44	X45	Y45	Z45	X46	Y46	Z46	X47	Y47	Z47	X48	Y48	Z48	X49	Y49	Z49	X50	Y50	Z50	X51	Y51	Z51	X52	Y52	Z52	X53	Y53	Z53	X54	Y54	Z54	

454	4.53	-1010.781616210938	982.0821533203125	300.3135986328125	-1020.093933105469	986.4097290039062	170.870849609375	-1028.191650390625	1049.176147460938	241.9828796386719	-779.4465942382812	1219.831909179688	206.9925994873047	-1023.122009277344	1168.104736328125	231.4033355712891	-970.2962646484375	1412.383911132812	199.7141265869141	-818.7317504882812	1345.90673828125	198.0692901611328	-1020.720764160156	1280.958740234375	279.7256469726562	-989.7785034179688	1370.306884765625	100.6023330688477	-907.3289184570312	1379.590087890625	39.48772048950195	-920.6486206054688	1256.51123046875	-21.18017768859863	-865.9443359375	1058.587036132812	-30.92228507995605	-930.355712890625	1033.320678710938	18.37773513793945	-711.7603759765625	859.9091796875	41.55464172363281	-735.861572265625	833.7230834960938	-17.10873603820801	-823.1756591796875	961.1951904296875	-30.64373970031738	-648.6834106445312	712.59619140625	55.79526901245117	-713.8035888671875	767.3892822265625	-6.261937141418457	-674.5675659179688	788.1922607421875	33.86670303344727	-901.1983032226562	1403.945190429688	358.723876953125	-910.3405151367188	1343.239379882812	427.8640441894531	-910.4216918945312	1078.122192382812	481.7295227050781	-959.2154541015625	1066.276489257812	401.5610961914062	-819.7752075195312	839.6875	448.2862243652344	-847.917724609375	835.68359375	519.7074584960938	-887.0266723632812	1010.854309082031	493.8635864257812	-820.8929443359375	667.01416015625	481.0251770019531	-799.787109375	737.2587280273438	473.1894226074219	-841.6076049804688	750.1649780273438	526.43212890625	-922.1410522460938	1612.064086914062	268.8788146972656	-755.9304809570312	1624.266479492188	141.6559600830078	-761.8648681640625	1628.15234375	242.6215209960938	-940.8134155273438	1600.458618164062	124.879638671875	-938.557861328125	936.8314208984375	59.2568359375	-930.3829345703125	918.2955322265625	402.6234741210938	-824.776611328125	946.274658203125	358.7494201660156	-816.9356079101562	956.8126220703125	118.8162155151367	-834.1082763671875	618.9736938476562	56.09569549560547	-988.387451171875	76.46324157714844	73.29781341552734	-904.3989868164062	273.0857238769531	59.18538665771484	-782.3078002929688	65.43424987792969	120.0287780761719	-848.2404174804688	50.90213775634766	163.5049591064453	-865.3693237304688	65.38264465332031	53.13898468017578	-1019.544189453125	75.33669281005859	143.2176666259766	-923.8058471679688	454.1326293945312	359.7236938476562	-870.11083984375	709.2142333984375	394.179931640625	-1016.725463867188	49.83652496337891	310.0663452148438	-928.3076171875	335.0191650390625	341.0211791992188	-825.5721435546875	49.96859741210938	255.6988830566406	-880.4623413085938	39.40872573852539	214.6019592285156	-913.47900390625	41.43125915527344	328.2239379882812	-1069.66064453125	49.85454940795898	263.9182739257812	-814.9720458984375	480.145263671875	70.83885192871094	nan	nan	nan	
455	4.54	-1012.60107421875	982.4512329101562	299.937255859375	-1021.464050292969	986.6640625	170.4809112548828	-1029.726318359375	1049.160400390625	241.4318237304688	-781.31298828125	1220.244018554688	207.1345367431641	-1025.029418945312	1168.070190429688	230.9281921386719	-972.544189453125	1412.459350585938	199.2642517089844	-820.7758178710938	1346.29541015625	198.0662078857422	-1022.916320800781	1280.973266601562	279.0785522460938	-991.6287841796875	1370.353759765625	100.0688934326172	-908.9894409179688	1379.773559570312	39.23191833496094	-921.8200073242188	1256.637817382812	-21.39686965942383	-866.6857299804688	1058.789428710938	-30.69688415527344	-931.1787719726562	1033.448974609375	18.40701103210449	-712.135498046875	860.7454833984375	42.91937637329102	-735.7728271484375	834.3839111328125	-15.79637622833252	-823.5455322265625	961.55029296875	-30.0244140625	-648.5775146484375	713.6292724609375	57.74394226074219	-713.56201171875	768.147216796875	-4.665374755859375	-674.6072387695312	789.0814208984375	35.43654251098633	-903.8954467773438	1404.184326171875	358.4861755371094	-913.3106689453125	1343.605224609375	427.6457214355469	-914.823486328125	1078.53515625	481.762451171875	-962.991455078125	1066.84716796875	401.176513671875	-825.463623046875	839.456787109375	449.859375	-854.1102294921875	835.966552734375	521.0325927734375	-891.869140625	1011.384155273438	494.4002075195312	-828.201171875	666.8992309570312	483.1561279296875	-806.4004516601562	736.957275390625	475.229248046875	-848.563232421875	750.3838500976562	528.0816040039062	-925.0407104492188	1612.305053710938	268.795166015625	-758.7276000976562	1624.825317382812	141.6092681884766	-764.7522583007812	1628.717041015625	242.5569458007812	-943.5344848632812	1600.556518554688	124.6767044067383	-939.654296875	936.7827758789062	59.1979866027832	-932.5274658203125	918.8228149414062	402.5625305175781	-826.81787109375	946.7296752929688	358.9000244140625	-818.17138671875	956.7720947265625	118.9499816894531	-837.5654296875	618.5269165039062	56.51822662353516	-996.4769287109375	76.81987762451172	73.66568756103516	-910.8269653320312	272.929931640625	59.67221450805664	-790.7849731445312	64.88748931884766	121.7036666870117	-857.0523071289062	50.55385971069336	164.7754974365234	-873.44140625	65.03528594970703	54.31319427490234	-1028.051635742188	76.08731079101562	143.4029541015625	-925.0045776367188	454.34375	360.0534973144531	-871.8665771484375	709.5911254882812	394.4730224609375	-1016.776245117188	49.7822380065918	310.134521484375	-929.1395263671875	335.2313842773438	341.2096862792969	-825.5612182617188	50.05860900878906	255.7573852539062	-880.41357421875	39.59012985229492	214.6455841064453	-913.46826171875	41.40265274047852	328.2532653808594	-1069.717529296875	49.81673431396484	263.9889831542969	-819.7964477539062	479.4246215820312	71.39260864257812	nan	nan	nan	
456	4.55	-1014.342834472656	982.8019409179688	299.5184936523438	-1022.746337890625	986.8878784179688	170.0546875	-1031.115112304688	1049.09423828125	240.8208312988281	-783.101806640625	1220.634399414062	207.2376403808594	-1026.85107421875	1168.004028320312	230.3831481933594	-974.720458984375	1412.501708984375	198.7654724121094	-822.7413330078125	1346.661499023438	198.0359649658203	-1025.055786132812	1280.95849609375	278.3722534179688	-993.3870239257812	1370.382446289062	99.48686981201172	-910.5525512695312	1379.951049804688	38.94141006469727	-922.9019165039062	1256.771118164062	-21.6623592376709	-867.4344482421875	1058.977294921875	-30.50481796264648	-932.0277099609375	1033.603759765625	18.40399551391602	-712.7409057617188	861.3394165039062	44.15102005004883	-735.9857788085938	834.8681030273438	-14.63639068603516	-824.0335693359375	961.8427734375	-29.48024368286133	-648.878662109375	714.366455078125	59.49430847167969	-713.7130737304688	768.6890869140625	-3.244063138961792	-674.9533081054688	789.72314453125	36.84878921508789	-906.5538330078125	1404.389526367188	358.1990661621094	-916.23974609375	1343.94580078125	427.3714599609375	-919.1603393554688	1078.9423828125	481.7320556640625	-966.68798828125	1067.391723632812	400.7174682617188	-830.9832153320312	839.2614135742188	451.3058776855469	-860.117431640625	836.2413940429688	522.1871337890625	-896.6548461914062	1011.896423339844	494.8677368164062	-835.1826782226562	666.8323974609375	484.9928894042969	-812.7426147460938	736.7269897460938	477.0426940917969	-855.2529296875	750.6095581054688	529.4990844726562	-927.860107421875	1612.496215820312	268.6692810058594	-761.4514770507812	1625.33642578125	141.5509490966797	-767.5675659179688	1629.231323242188	242.4855041503906	-946.1710815429688	1600.628051757812	124.4498062133789	-940.6739501953125	936.6466064453125	59.12513732910156	-934.5792846679688	919.3336791992188	402.4526977539062	-828.7984619140625	947.1739501953125	359.0028076171875	-819.3440551757812	956.6319580078125	119.038818359375	-841.2772827148438	618.0181884765625	56.8046989440918	-1003.877014160156	76.74123382568359	74.01576995849609	-917.0357666015625	272.515625	60.07304000854492	-798.5518798828125	64.00055694580078	123.2852249145508	-865.1204833984375	49.87321472167969	165.9578399658203	-880.8414306640625	64.32070159912109	55.4072265625	-1035.833618164062	76.41789245605469	143.5776672363281	-926.1681518554688	454.5520629882812	360.3392333984375	-873.5670776367188	709.9661254882812	394.7433471679688	-1016.827819824219	49.73256301879883	310.2044982910156	-929.9393920898438	335.4610290527344	341.3956604003906	-825.5338745117188	50.15733337402344	255.8013000488281	-880.3709106445312	39.75920104980469	214.6915588378906	-913.460693359375	41.37511825561523	328.2839965820312	-1069.7763671875	49.77801895141602	264.0592956542969	-824.9141235351562	478.6068725585938	71.80461883544922	nan	nan	nan	
457	4.56	-1016.002319335938	983.1198120117188	299.0587768554688	-1023.9375	987.0669555664062	169.5971374511719	-1032.358032226562	1048.964965820312	240.1548309326172	-784.8169555664062	1220.996215820312	207.3081665039062	-1028.58740234375	1167.894287109375	229.7654876708984	-976.832275390625	1412.497436523438	198.2186737060547	-824.639404296875	1346.99169921875	197.9856414794922	-1027.1455078125	1280.901611328125	277.6078796386719	-995.0598754882812	1370.374877929688	98.85753631591797	-912.0239868164062	1380.106567382812	38.61832427978516	-923.9002685546875	1256.89453125	-21.97716522216797	-868.1866455078125	1059.137329101562	-30.35203552246094	-932.9028930664062	1033.766845703125	18.35790824890137	-713.5602416992188	861.6857299804688	45.24195098876953	-736.4927368164062	835.163818359375	-13.63740253448486	-824.632080078125	962.0582885742188	-29.0186824798584	-649.5758056640625	714.7984619140625	61.05045318603516	-714.2425537109375	768.9978637695312	-2.000248432159424	-675.5899047851562	790.1045532226562	38.10506820678711	-909.1834716796875	1404.552612304688	357.862548828125	-919.136474609375	1344.247680664062	427.0413513183594	-923.433837890625	1079.332275390625	481.63671875	-970.304443359375	1067.895263671875	400.1816711425781	-836.306396484375	839.0982055664062	452.6179809570312	-865.934326171875	836.4959716796875	523.17236328125	-901.376220703125	1012.369018554688	495.2498779296875	-841.8098754882812	666.7974243164062	486.5412902832031	-818.798828125	736.5562744140625	478.638427734375	-861.6635131835938	750.8289794921875	530.6900024414062	-930.603759765625	1612.623657226562	268.4993591308594	-764.1019897460938	1625.785278320312	141.4854278564453	-770.313232421875	1629.6796875	242.4111938476562	-948.7258911132812	1600.66650390625	124.2002410888672	-941.62841796875	936.400390625	59.03832244873047	-936.5259399414062	919.8119506835938	402.2899169921875	-830.7100219726562	947.6012573242188	359.0541076660156	-820.4677124023438	956.3635864257812	119.0784606933594	-845.2864990234375	617.4304809570312	56.95101928710938	-1010.517883300781	76.18041229248047	74.36032104492188	-923.015869140625	271.8147583007812	60.383544921875	-805.5324096679688	62.77052688598633	124.7553024291992	-872.3434448242188	48.87157440185547	167.0396118164062	-887.4942626953125	63.21881484985352	56.41108703613281	-1042.811401367188	76.26948547363281	143.7596282958984	-927.3064575195312	454.7556457519531	360.5762329101562	-875.2223510742188	710.3359985351562	394.993408203125	-1016.881408691406	49.68763732910156	310.2742309570312	-930.7195434570312	335.7090454101562	341.5853576660156	-825.4927978515625	50.26278305053711	255.8289489746094	-880.3399658203125	39.91040420532227	214.7420349121094	-913.4577026367188	41.34999465942383	328.3161315917969	-1069.83837890625	49.7374153137207	264.1284484863281	-830.3574829101562	477.6790161132812	72.05742645263672	nan	nan	nan	
